<svg aria-hidden="true" style="width:0;height:0;position:absolute;overflow:hidden" xmlns="http://www.w3.org/2000/svg"><defs><symbol id="icon-close" viewBox="0 0 32 32"><path d="M31.439 3.166 28.273 0 15.72 12.553 3.167 0 .001 3.166l12.553 12.553L.001 28.272l3.166 3.166L15.72 18.885l12.553 12.553 3.166-3.166-12.553-12.553L31.439 3.166z"/></symbol><symbol id="icon-facebook" viewBox="0 0 32 32"><path d="M21.329 5.313h2.921V.225C23.746.156 22.013 0 19.994 0c-4.212 0-7.097 2.649-7.097 7.519V12H8.249v5.688h4.648V32h5.699V17.689h4.46l.708-5.688h-5.169V8.082c.001-1.644.444-2.769 2.735-2.769z"/></symbol><symbol id="icon-telegram" viewBox="0 0 32 37"><path d="M24.512 30.372c.429.304.983.38 1.476.193.493-.188.856-.609.965-1.12C28.112 24 30.922 10.217 31.977 5.264c.08-.373-.053-.761-.347-1.011s-.7-.321-1.063-.187C24.976 6.135 7.759 12.595.722 15.199a1.103 1.103 0 0 0-.723 1.065c.016.472.333.881.791 1.019 3.156.944 7.299 2.257 7.299 2.257s1.936 5.847 2.945 8.82c.127.373.419.667.804.768.384.1.795-.005 1.081-.276l4.128-3.897s4.763 3.492 7.464 5.416zM9.832 18.803l2.239 7.384.497-4.676 13.58-12.248a.37.37 0 0 0 .044-.503.379.379 0 0 0-.501-.085L9.832 18.803z"/></symbol><symbol id="icon-instagram" viewBox="0 0 32 32"><path d="M31.969 9.408c-.075-1.7-.35-2.869-.744-3.882a7.806 7.806 0 0 0-1.851-2.838A7.867 7.867 0 0 0 26.542.844C25.523.45 24.36.175 22.66.1 20.947.019 20.403 0 16.059 0s-4.888.019-6.595.094c-1.7.075-2.869.35-3.882.744a7.803 7.803 0 0 0-2.838 1.85A7.867 7.867 0 0 0 .9 5.52C.506 6.539.231 7.702.156 9.402c-.081 1.713-.1 2.257-.1 6.601s.019 4.888.094 6.595c.075 1.7.35 2.869.744 3.882a7.895 7.895 0 0 0 1.85 2.838 7.867 7.867 0 0 0 2.832 1.844c1.019.394 2.182.669 3.882.744 1.706.075 2.25.094 6.595.094s4.888-.019 6.595-.094c1.7-.075 2.869-.35 3.882-.744a8.184 8.184 0 0 0 4.682-4.682c.394-1.019.669-2.182.744-3.882.075-1.707.094-2.251.094-6.595s-.006-4.888-.081-6.595zm-2.882 13.065c-.069 1.563-.331 2.407-.55 2.969a5.31 5.31 0 0 1-3.038 3.038c-.563.219-1.413.481-2.969.55-1.688.075-2.194.094-6.464.094s-4.782-.019-6.464-.094c-1.563-.069-2.407-.331-2.969-.55a4.926 4.926 0 0 1-1.838-1.194 4.974 4.974 0 0 1-1.194-1.838c-.219-.563-.481-1.413-.55-2.969-.075-1.688-.094-2.194-.094-6.464s.019-4.782.094-6.464c.069-1.563.331-2.407.55-2.969a4.868 4.868 0 0 1 1.2-1.838A4.974 4.974 0 0 1 6.639 3.55c.563-.219 1.413-.481 2.969-.55 1.688-.075 2.194-.094 6.464-.094 4.276 0 4.782.019 6.464.094 1.563.069 2.407.331 2.969.55a4.914 4.914 0 0 1 1.838 1.194 4.974 4.974 0 0 1 1.194 1.838c.219.563.481 1.413.55 2.969.075 1.688.094 2.194.094 6.464s-.019 4.77-.094 6.458z"/><path d="M16.059 7.783c-4.538 0-8.22 3.682-8.22 8.22s3.682 8.22 8.22 8.22c4.539 0 8.22-3.682 8.22-8.22s-3.682-8.22-8.22-8.22zm0 13.552a5.333 5.333 0 0 1 0-10.664 5.333 5.333 0 0 1 0 10.664zM26.524 7.458a1.919 1.919 0 1 1-3.838 0 1.919 1.919 0 0 1 3.838 0z"/></symbol><symbol id="icon-map" viewBox="0 0 27 20"><path d="M20 10.364C20 16.09 12 21 12 21s-8-4.91-8-10.636C4 6.297 7.582 3 12 3s8 3.297 8 7.364Z" stroke-linecap="round" stroke-linejoin="round"/><path d="M12 14a3 3 0 1 0 0-6 3 3 0 0 0 0 6Z" stroke="#000" stroke-linecap="round" stroke-linejoin="round"/></symbol><symbol id="icon-menu" viewBox="0 0 32 32"><path d="M0 8.889V5.333h32v3.556H0zm0 8.889h32v-3.556H0v3.556zm0 8.889h32v-3.556H0v3.556z"/></symbol><symbol id="icon-phone" viewBox="0 0 38 38"><path stroke-linejoin="round" stroke-linecap="round" stroke-width="1.778" d="M30.221 23.116v4.291a2.859 2.859 0 0 1-3.118 2.86 28.294 28.294 0 0 1-12.342-4.391 27.883 27.883 0 0 1-8.581-8.581 28.31 28.31 0 0 1-4.391-12.4 2.862 2.862 0 0 1 2.846-3.118h4.291a2.86 2.86 0 0 1 2.86 2.46 18.377 18.377 0 0 0 1.001 4.019 2.86 2.86 0 0 1-.644 3.018l-1.816 1.816a22.884 22.884 0 0 0 8.581 8.581l1.816-1.816a2.863 2.863 0 0 1 3.018-.644c1.298.484 2.646.82 4.019 1.001a2.86 2.86 0 0 1 2.46 2.903z"/></symbol><symbol id="icon-eye2" viewBox="0 0 32 32"><path d="M24.786 4.549c-.274.119-.43.261-.539.498-.101.21-.11.297-.11.896 0 1.582-.128 2.61-.443 3.561-.311.946-.928 2.299-1.294 2.839-.398.59-1.216 1.207-2.286 1.723-.535.261-.791.37-1.486.631-.151.055-.448.169-.663.251-.539.21-.96.366-1.097.411-.064.018-.475.165-.914.315-.439.155-.974.325-1.189.375s-.585.142-.823.201c-.59.146-1.129.238-1.943.325-.585.069-1.166.078-3.954.069-3.543-.009-4.128-.037-4.64-.21-.389-.137-.622-.142-.869-.027-.347.16-.613.535-.617.869 0 .494.315.869.891 1.065.622.21 1.239.274 2.848.306l.379.005-.027.261c-.046.37-.187 1.184-.544 3.077-.288 1.541-.48 2.13-.91 2.752-.114.174-.224.384-.242.475-.165.882.818 1.527 1.545 1.015.169-.119.594-.69.722-.974.389-.869.576-1.472.773-2.537.055-.288.146-.782.21-1.097.142-.727.279-1.504.366-2.057.037-.238.091-.539.114-.667l.05-.238 1.883-.023a72.086 72.086 0 0 0 1.975-.041c.091-.014.091.018.114 2.066.014 1.143.037 2.103.055 2.13s.064.306.101.617c.041.315.091.635.114.709s.087.334.142.581c.146.631.366.887.846.997.489.11.997-.206 1.143-.709.073-.247.069-.261-.064-.814a11.619 11.619 0 0 1-.279-1.568c-.023-.178-.041-1.225-.046-2.336v-2.016l.379-.082c.91-.201 1.394-.338 2.043-.571.288-.105.64-.229.777-.274.379-.128.626-.219 1.051-.389.645-.256.622-.261.759.05.064.151.137.311.169.361l.151.274c.178.329.64 1.138.791 1.39.229.384 1.01 1.966 1.01 2.043 0 .014.096.265.21.558.114.297.251.649.302.786.242.658.315.75.695.919.599.261 1.298-.169 1.344-.827.018-.274-.023-.43-.357-1.28a16.823 16.823 0 0 1-.169-.434 13.186 13.186 0 0 0-.649-1.486c-.361-.745-.448-.901-1.061-1.966-.517-.901-.699-1.262-.667-1.335.014-.037.123-.114.242-.174.718-.361 1.582-.933 2.062-1.362l.379-.338.352.114c.197.064.667.242 1.042.398.379.155.928.384 1.225.507s.658.283.8.357c.146.078.393.187.558.247.165.064.411.169.549.242.503.256 1.07.128 1.358-.311.096-.146.128-.256.142-.494.018-.334-.041-.512-.261-.75-.119-.128-.594-.375-1.033-.53-.123-.046-.466-.197-.759-.338s-.544-.256-.567-.256c-.023 0-.315-.123-.658-.27a25.343 25.343 0 0 0-.942-.393c-.475-.178-.663-.261-.663-.293 0-.018.133-.32.293-.667.347-.754.608-1.499.832-2.354.087-.338.178-.635.197-.654.041-.041.869.055 1.467.16.425.078.681.064.891-.041.238-.123.361-.261.485-.535a.965.965 0 0 0-.562-1.275 4.587 4.587 0 0 0-.539-.123c-.187-.027-.425-.073-.53-.091a5.908 5.908 0 0 0-.622-.073l-.439-.032-.023-.165a4.1 4.1 0 0 1-.005-.599c.023-.553-.037-.809-.247-1.051-.283-.334-.731-.453-1.097-.297z"/></symbol><symbol id="icon-eye1" viewBox="0 0 20 20"><path d="M5.709 5.988c-.291.109-.6.382-.745.655-.309.612-.061 1.412.891 2.903.23.358.449.642.952 1.224.23.261.406.509.394.545-.024.061-.709.497-1.958 1.236-.267.158-.715.436-1 .618s-.673.43-.867.552c-.764.473-1.006.8-1.012 1.358 0 .521.273.958.752 1.206.188.097.327.115.636.097.388-.018.436-.042 1.206-.533.442-.285 1.03-.655 1.303-.818.273-.17.564-.345.649-.4.649-.412 2.291-1.388 2.333-1.388.018 0 .194.127.4.285.2.164.485.37.63.473a40.86 40.86 0 0 0 1.503.994c.121.073.224.17.224.212s-.073.188-.158.315c-.903 1.321-1.891 3.321-1.951 3.927a1.317 1.317 0 0 0 .721 1.315c.279.139.812.151 1.109.03.279-.115.618-.473.703-.745.139-.418.624-1.43.976-2.024.515-.873 1.024-1.63 1.085-1.63.03 0 .339.127.679.279 1.273.564 1.715.709 3.291 1.109.133.03.461.091.727.127.267.042.594.091.721.115l.242.036-.018 1c-.012 1.067.055 1.988.236 3.212.133.903.17 1.012.455 1.327.612.673 1.679.521 2.109-.297.2-.382.2-.43-.018-1.97-.127-.873-.206-2.939-.115-3.03.024-.018.309-.061.636-.091 1.291-.121 2.721-.37 3.509-.606.103-.03.358-.109.576-.176 1.594-.473 1.752-.558 2.012-1.061.248-.479.127-1.17-.267-1.533-.194-.182-.648-.382-.879-.382-.109 0-.358.055-.545.115-1.17.394-2.321.691-3.2.824-1.655.255-2.049.267-3.636.091-2.218-.242-3.121-.491-5.267-1.442a68.202 68.202 0 0 1-1.394-.679c-1.933-.964-3.182-1.867-4.606-3.303-1.085-1.097-1.982-2.273-2.194-2.879-.206-.576-.297-.745-.521-.933a1.323 1.323 0 0 0-1.309-.261z"/></symbol><symbol id="icon-eye3" viewBox="0 0 32 32"><path d="M6.405 8.083c-.553.256-.829.919-.588 1.412.106.216.362.578.653.919.116.141.211.276.211.301 0 .085-.527.653-.754.809-.357.246-.748.477-1.155.683-.643.327-1.924.889-2.16.954-.407.105-.804.633-.804 1.055 0 .553.568 1.105 1.135 1.105.452 0 2.929-1.14 3.964-1.824.467-.311.784-.573.98-.804.09-.1.201-.186.251-.186.045 0 .256.161.457.357a12.365 12.365 0 0 0 2.572 1.854c.241.126.437.256.437.291 0 .08-.211.497-.452.889-.367.603-.553.919-.553.949 0 .015-.241.462-.533.995-.754 1.361-.874 1.628-.874 1.899.005.568.533 1.105 1.1 1.105.457 0 .809-.281 1.105-.884.121-.246.261-.502.306-.573s.196-.332.327-.578c.131-.251.296-.553.367-.678.065-.126.201-.372.291-.548.095-.176.246-.432.342-.578.196-.301.462-.799.533-1 .055-.156.126-.166.477-.06a29.63 29.63 0 0 0 2.23.558c.347.07.633.131.638.136l-.035.814c-.095 1.834-.111 2.899-.05 3.255.161 1 .327 1.738.432 1.944.171.332.568.553.985.553.487 0 .894-.311 1.035-.799.075-.266.075-.301-.025-.713-.276-1.105-.316-1.864-.201-3.677.065-1.055.025-.975.497-.889.603.105 2.783.141 3.486.055.427-.05.814-.116 1.306-.206.166-.035.362-.07.432-.085.116-.02.141 0 .236.246.06.146.176.527.261.844.266 1.025.311 1.175.407 1.427.05.136.095.266.095.291 0 .186 1.06 2.376 1.246 2.572.522.558 1.492.377 1.788-.332.166-.387.116-.618-.316-1.507-.487-1.015-.718-1.582-.884-2.2-.261-.98-.291-1.085-.382-1.366a5.01 5.01 0 0 1-.126-.482c-.03-.186-.02-.196.136-.261.522-.201 1.387-.939 1.582-1.346.196-.417.035-1.045-.342-1.316a1.068 1.068 0 0 0-.975-.176c-.231.065-.337.136-.568.377-.452.472-1.14.779-2.241 1.005-.588.116-1.03.206-1.256.251-.748.146-1.889.171-3.265.07a13.908 13.908 0 0 1-1.909-.296 55.641 55.641 0 0 0-1.507-.327c-1.281-.256-2.597-.643-3.29-.965-1.311-.608-1.904-.949-2.693-1.542-.412-.306-1.668-1.577-1.919-1.939a13.368 13.368 0 0 0-.432-.578 21.51 21.51 0 0 1-.497-.628 4.385 4.385 0 0 0-.397-.462 1.058 1.058 0 0 0-1.12-.171z"/></symbol><symbol id="icon-eye4" viewBox="0 0 32 32"><path d="M25.131 9.055c-.464.121-.661.368-1.201 1.519-.308.651-.742 1.403-1.045 1.792-.58.757-1.075 1.05-3.225 1.898-.666.262-1.529.611-1.918.777-.389.162-.848.353-1.025.424-.656.273-1.085.338-2.352.358-1.136.015-1.812-.025-2.327-.126a61.747 61.747 0 0 1-1.312-.273c-.192-.045-.444-.101-.555-.126-1.857-.414-2.337-.545-3.003-.848-.747-.343-.959-.58-1.338-1.519-.454-1.136-.555-1.297-.944-1.474-.858-.389-1.817.49-1.484 1.363.505 1.312 1.02 2.317 1.338 2.594.056.056.106.131.106.167 0 .04-.172.257-.384.485-.636.691-2.039 3.15-2.039 3.579 0 .333.106.606.333.828.252.257.495.343.883.313.474-.035.666-.197 1.009-.883.399-.792 1.105-1.958 1.388-2.286a6.12 6.12 0 0 1 .57-.57c.358-.313.409-.323.787-.156.081.035.323.101.53.146s.495.116.631.151c.141.04.389.096.555.131.439.091 1.05.242 1.075.273.015.015 0 .111-.03.222-.035.106-.061.464-.066.792a8.83 8.83 0 0 1-.323 2.291c-.04.151-.106.424-.146.606a9.545 9.545 0 0 1-.454 1.322c-.116.278-.101.54.061.853.187.373.464.56.868.591.399.03.702-.086.919-.343.298-.348.838-2.024 1.105-3.432.106-.56.141-.944.146-1.514.005-.318.035-.666.066-.777l.061-.192 1.615.005c1.287.01 1.691-.005 1.984-.071a4.64 4.64 0 0 1 .464-.076c.101 0 .116.025.585 1.085.162.358.328.712.373.782.05.071.283.5.515.959 1.307 2.534 1.408 2.695 1.787 2.877.182.091.293.106.55.091.424-.025.691-.207.898-.596.217-.419.182-.646-.202-1.343a71.927 71.927 0 0 1-1.171-2.216 8.685 8.685 0 0 0-.389-.717c-.061-.086-.202-.384-.318-.656s-.252-.58-.308-.681c-.167-.313-.141-.424.141-.525.131-.045.373-.141.54-.212s.464-.187.656-.262c1.04-.409 1.913-.777 2.271-.959l.404-.207.091.116c.207.257.979 1.015 1.146 1.115.096.056.242.162.323.227.086.066.202.141.267.167s.419.212.787.419c.368.202.828.434 1.02.51.197.076.444.177.555.227.656.303.838.368 1.11.409.167.03.389.066.495.081.121.02.267 0 .414-.061.762-.288 1.004-1.146.495-1.736-.227-.267-.404-.358-.813-.414-.182-.025-.358-.071-.389-.096-.061-.05-.722-.333-.934-.399-.172-.056-.459-.202-.858-.434a18.826 18.826 0 0 0-.535-.303 3.972 3.972 0 0 1-1.04-.772c-.217-.212-.394-.404-.394-.424s.086-.167.192-.323c.495-.752.903-1.459 1.126-1.953a8.49 8.49 0 0 1 .434-.848c.303-.5.288-1.009-.05-1.388a1.07 1.07 0 0 0-1.1-.353z"/></symbol><symbol id="icon-eye5" viewBox="0 0 32 32"><path d="M27.495 8.044c-.295.079-.379.143-.798.601-.862.955-2.127 2.171-2.767 2.654-.108.084-.295.226-.418.32-1.502 1.147-3.948 2.186-6.233 2.654-1.359.276-3.412.207-5.721-.192-.699-.118-1.856-.497-2.624-.852a25.523 25.523 0 0 1-1.871-1.034c-.512-.32-1.285-.886-2.171-1.595-.625-.497-.822-.606-1.127-.606-.537 0-1.078.517-1.083 1.034 0 .453.212.758.886 1.265.148.113.384.295.517.404.138.108.325.256.418.325s.295.212.443.32c.148.108.473.33.714.492.246.158.527.345.625.414l.182.123-.286.433a46.701 46.701 0 0 0-1.442 2.402c-.635 1.142-.64 1.9-.015 2.329.172.118.241.133.596.133.34 0 .423-.015.576-.123.246-.162.414-.414.478-.714.044-.202.418-.926.847-1.649.478-.802.837-1.334 1.029-1.546l.231-.251.241.089c.847.32 1.812.601 2.486.729.389.074.354-.039.34 1.054-.015 1.063.133 2.649.32 3.397.3 1.182.305 1.196.522 1.433.517.561 1.383.428 1.743-.276.123-.246.113-.591-.039-1.132a14.926 14.926 0 0 1-.182-.738c-.108-.522-.202-1.708-.202-2.545v-.847l1.073.03c.955.025 1.9-.02 2.447-.113.133-.025.162-.005.256.162.059.103.118.276.138.384.015.108.049.29.079.404.069.325.128.596.217.999.039.202.098.458.123.566s.094.394.148.64c.113.492.315 1.024.586 1.561.143.286.222.384.404.497.128.079.32.153.433.167.61.084 1.196-.423 1.206-1.044.005-.187-.044-.359-.207-.719-.241-.551-.473-1.447-.798-3.097-.059-.286-.123-.606-.153-.714-.094-.359-.084-.384.128-.448 1.236-.359 3.21-1.27 4.199-1.93.256-.172.266-.177.492-.113.335.089.502.177.778.418.379.335.871 1.122 1.314 2.097.212.473.443.921.512.994s.236.177.374.236c.315.138.63.113.94-.069.325-.192.487-.458.512-.842.02-.305.01-.34-.379-1.201-.453-.994-.783-1.575-1.26-2.196-.158-.202-.862-.911-.906-.911a.263.263 0 0 1-.103-.049c-.054-.034.094-.207.689-.802 1.073-1.068 1.708-1.762 1.797-1.969.33-.798-.428-1.669-1.255-1.442z"/></symbol><symbol id="icon-eye6" viewBox="0 0 32 32"><path d="M24.065 6.639c-.503.155-.735.374-1.026.974-.219.445-.277.542-1.258 2-.826 1.226-1.116 1.6-1.781 2.258-.697.697-1.09.91-2.839 1.542-1.684.6-2.271.768-4.484 1.297-.303.071-1.439.297-2 .394-.581.097-.948.168-1.871.342-1.742.335-2.026.374-2.968.419-.903.039-.994.052-1.271.219-.574.335-.839 1.077-.606 1.69.142.368.587.761.981.871.523.148 2.361-.019 3.929-.355.252-.052.49-.097.535-.097.058 0 .077.555.077 2.574v2.574l.181.342c.329.626 1.077.923 1.716.677.355-.135.781-.587.871-.916.045-.161.071-1.252.071-3.013 0-2.148.019-2.761.084-2.781.039-.013.252-.058.465-.103s.548-.116.742-.168l1.065-.252c.394-.097 1.084-.29 1.535-.439l.832-.265.116.155c.065.09.142.265.161.387.026.123.103.368.174.548.071.174.181.452.245.613.323.8.671 1.529.794 1.665.394.426 1.123.555 1.626.29.71-.374.987-1.129.671-1.819-.516-1.142-1.071-2.761-.974-2.858.026-.019.252-.148.497-.284.252-.135.581-.342.742-.465.419-.316 1.316-1.2 1.716-1.703.419-.516.413-.516.645-.445.103.032.361.09.574.129s.632.168.929.297c1.103.458 2.49.677 3.013.484.226-.09.606-.452.742-.716.148-.303.161-.806.019-1.142-.213-.51-.652-.806-1.297-.877a7.398 7.398 0 0 1-.774-.142c-.406-.103-1.497-.523-1.6-.619-.039-.039-.019-.129.058-.265.065-.116.245-.452.4-.755.316-.606.361-.974.187-1.406-.271-.639-1.039-1.039-1.645-.858z"/></symbol></defs></svg>