<svg aria-hidden="true" style="position: absolute; width: 0; height: 0; overflow: hidden;" version="1.1" xmlns="http://www.w3.org/2000/svg" xmlns:xlink="http://www.w3.org/1999/xlink">
<defs>
<symbol id="icon-close" viewBox="0 0 32 32">
<path d="M31.439 3.166l-3.166-3.166-12.553 12.553-12.553-12.553-3.166 3.166 12.553 12.553-12.553 12.553 3.166 3.166 12.553-12.553 12.553 12.553 3.166-3.166-12.553-12.553 12.553-12.553z"></path>
</symbol>
<symbol id="icon-facebook" viewBox="0 0 32 32">
<path d="M21.329 5.313h2.921v-5.088c-0.504-0.069-2.237-0.225-4.256-0.225-4.212 0-7.097 2.649-7.097 7.519v4.481h-4.648v5.688h4.648v14.312h5.699v-14.311h4.46l0.708-5.688h-5.169v-3.919c0.001-1.644 0.444-2.769 2.735-2.769z"></path>
</symbol>
<symbol id="icon-telegram" viewBox="0 0 32 37">
<path d="M24.512 30.372c0.429 0.304 0.983 0.38 1.476 0.193 0.493-0.188 0.856-0.609 0.965-1.12 1.159-5.445 3.969-19.228 5.024-24.181 0.080-0.373-0.053-0.761-0.347-1.011s-0.7-0.321-1.063-0.187c-5.591 2.069-22.808 8.529-29.845 11.133-0.447 0.165-0.737 0.595-0.723 1.065 0.016 0.472 0.333 0.881 0.791 1.019 3.156 0.944 7.299 2.257 7.299 2.257s1.936 5.847 2.945 8.82c0.127 0.373 0.419 0.667 0.804 0.768 0.384 0.1 0.795-0.005 1.081-0.276 1.621-1.531 4.128-3.897 4.128-3.897s4.763 3.492 7.464 5.416zM9.832 18.803l2.239 7.384 0.497-4.676c0 0 8.649-7.801 13.58-12.248 0.144-0.131 0.164-0.349 0.044-0.503-0.119-0.153-0.337-0.189-0.501-0.085-5.715 3.649-15.859 10.128-15.859 10.128z"></path>
</symbol>
<symbol id="icon-instagram" viewBox="0 0 32 32">
<path d="M31.969 9.408c-0.075-1.7-0.35-2.869-0.744-3.882-0.406-1.075-1.032-2.038-1.851-2.838-0.8-0.813-1.769-1.444-2.832-1.844-1.019-0.394-2.182-0.669-3.882-0.744-1.713-0.081-2.257-0.1-6.601-0.1s-4.888 0.019-6.595 0.094c-1.7 0.075-2.869 0.35-3.882 0.744-1.075 0.406-2.038 1.031-2.838 1.85-0.813 0.8-1.444 1.769-1.844 2.832-0.394 1.019-0.669 2.182-0.744 3.882-0.081 1.713-0.1 2.257-0.1 6.601s0.019 4.888 0.094 6.595c0.075 1.7 0.35 2.869 0.744 3.882 0.406 1.075 1.038 2.038 1.85 2.838 0.8 0.813 1.769 1.444 2.832 1.844 1.019 0.394 2.182 0.669 3.882 0.744 1.706 0.075 2.25 0.094 6.595 0.094s4.888-0.019 6.595-0.094c1.7-0.075 2.869-0.35 3.882-0.744 2.151-0.832 3.851-2.532 4.682-4.682 0.394-1.019 0.669-2.182 0.744-3.882 0.075-1.707 0.094-2.251 0.094-6.595s-0.006-4.888-0.081-6.595zM29.087 22.473c-0.069 1.563-0.331 2.407-0.55 2.969-0.538 1.394-1.644 2.5-3.038 3.038-0.563 0.219-1.413 0.481-2.969 0.55-1.688 0.075-2.194 0.094-6.464 0.094s-4.782-0.019-6.464-0.094c-1.563-0.069-2.407-0.331-2.969-0.55-0.694-0.256-1.325-0.663-1.838-1.194-0.531-0.519-0.938-1.144-1.194-1.838-0.219-0.563-0.481-1.413-0.55-2.969-0.075-1.688-0.094-2.194-0.094-6.464s0.019-4.782 0.094-6.464c0.069-1.563 0.331-2.407 0.55-2.969 0.256-0.694 0.663-1.325 1.2-1.838 0.519-0.531 1.144-0.938 1.838-1.194 0.563-0.219 1.413-0.481 2.969-0.55 1.688-0.075 2.194-0.094 6.464-0.094 4.276 0 4.782 0.019 6.464 0.094 1.563 0.069 2.407 0.331 2.969 0.55 0.694 0.256 1.325 0.662 1.838 1.194 0.531 0.519 0.938 1.144 1.194 1.838 0.219 0.563 0.481 1.413 0.55 2.969 0.075 1.688 0.094 2.194 0.094 6.464s-0.019 4.77-0.094 6.458z"></path>
<path d="M16.059 7.783c-4.538 0-8.22 3.682-8.22 8.22s3.682 8.22 8.22 8.22c4.539 0 8.22-3.682 8.22-8.22s-3.682-8.22-8.22-8.22zM16.059 21.335c-2.944 0-5.332-2.388-5.332-5.332s2.388-5.332 5.332-5.332c2.944 0 5.332 2.388 5.332 5.332s-2.388 5.332-5.332 5.332z"></path>
<path d="M26.524 7.458c0 1.060-0.859 1.919-1.919 1.919s-1.919-0.859-1.919-1.919c0-1.060 0.859-1.919 1.919-1.919s1.919 0.859 1.919 1.919z"></path>
</symbol>
<symbol id="icon-map" viewBox="0 0 27 20">
<path  d="M20 10.3636C20 16.0909 12 21 12 21C12 21 4 16.0909 4 10.3636C4 6.29681 7.58172 3 12 3C16.4183 3 20 6.29681 20 10.3636V10.3636Z"  stroke-linecap="round" stroke-linejoin="round"/>
<path  d="M12 14C13.6569 14 15 12.6569 15 11C15 9.34315 13.6569 8 12 8C10.3431 8 9 9.34315 9 11C9 12.6569 10.3431 14 12 14Z" stroke="#000" stroke-linecap="round" stroke-linejoin="round"/>
</symbol>
<symbol id="icon-menu" viewBox="0 0 32 32">
<path d="M0 8.889v-3.556h32v3.556h-32zM0 17.778h32v-3.556h-32v3.556zM0 26.667h32v-3.556h-32v3.556z"></path>
</symbol>
<symbol id="icon-phone" viewBox="0 0 38 38">
<path stroke-linejoin="round" stroke-linecap="round" stroke-miterlimit="4" stroke-width="1.7778" d="M30.221 23.116v4.291c0.003 0.805-0.333 1.575-0.927 2.119s-1.389 0.814-2.191 0.741c-4.401-0.478-8.628-1.982-12.342-4.391-3.456-2.196-6.385-5.125-8.581-8.581-2.417-3.731-3.921-7.979-4.391-12.4-0.072-0.8 0.195-1.593 0.736-2.186s1.307-0.931 2.11-0.932h4.291c1.436-0.014 2.659 1.038 2.86 2.46 0.181 1.373 0.517 2.721 1.001 4.019 0.393 1.045 0.142 2.224-0.644 3.018l-1.816 1.816c2.036 3.581 5.001 6.545 8.581 8.581l1.816-1.816c0.794-0.785 1.972-1.036 3.018-0.644 1.298 0.484 2.646 0.82 4.019 1.001 1.438 0.203 2.496 1.451 2.46 2.903z"></path>
</symbol>
<symbol id="icon-eye2" viewBox="0 0 32 32">
<path d="M24.786 4.549c-0.274 0.119-0.43 0.261-0.539 0.498-0.101 0.21-0.11 0.297-0.11 0.896 0 1.582-0.128 2.61-0.443 3.561-0.311 0.946-0.928 2.299-1.294 2.839-0.398 0.59-1.216 1.207-2.286 1.723-0.535 0.261-0.791 0.37-1.486 0.631-0.151 0.055-0.448 0.169-0.663 0.251-0.539 0.21-0.96 0.366-1.097 0.411-0.064 0.018-0.475 0.165-0.914 0.315-0.439 0.155-0.974 0.325-1.189 0.375s-0.585 0.142-0.823 0.201c-0.59 0.146-1.129 0.238-1.943 0.325-0.585 0.069-1.166 0.078-3.954 0.069-3.543-0.009-4.128-0.037-4.64-0.21-0.389-0.137-0.622-0.142-0.869-0.027-0.347 0.16-0.613 0.535-0.617 0.869 0 0.494 0.315 0.869 0.891 1.065 0.622 0.21 1.239 0.274 2.848 0.306l0.379 0.005-0.027 0.261c-0.046 0.37-0.187 1.184-0.544 3.077-0.288 1.541-0.48 2.13-0.91 2.752-0.114 0.174-0.224 0.384-0.242 0.475-0.165 0.882 0.818 1.527 1.545 1.015 0.169-0.119 0.594-0.69 0.722-0.974 0.389-0.869 0.576-1.472 0.773-2.537 0.055-0.288 0.146-0.782 0.21-1.097 0.142-0.727 0.279-1.504 0.366-2.057 0.037-0.238 0.091-0.539 0.114-0.667l0.050-0.238 1.883-0.023c1.038-0.014 1.925-0.032 1.975-0.041 0.091-0.014 0.091 0.018 0.114 2.066 0.014 1.143 0.037 2.103 0.055 2.13s0.064 0.306 0.101 0.617c0.041 0.315 0.091 0.635 0.114 0.709s0.087 0.334 0.142 0.581c0.146 0.631 0.366 0.887 0.846 0.997 0.489 0.11 0.997-0.206 1.143-0.709 0.073-0.247 0.069-0.261-0.064-0.814-0.133-0.544-0.197-0.896-0.279-1.568-0.023-0.178-0.041-1.225-0.046-2.336v-2.016l0.379-0.082c0.91-0.201 1.394-0.338 2.043-0.571 0.288-0.105 0.64-0.229 0.777-0.274 0.379-0.128 0.626-0.219 1.051-0.389 0.645-0.256 0.622-0.261 0.759 0.050 0.064 0.151 0.137 0.311 0.169 0.361 0.027 0.050 0.096 0.174 0.151 0.274 0.178 0.329 0.64 1.138 0.791 1.39 0.229 0.384 1.010 1.966 1.010 2.043 0 0.014 0.096 0.265 0.21 0.558 0.114 0.297 0.251 0.649 0.302 0.786 0.242 0.658 0.315 0.75 0.695 0.919 0.599 0.261 1.298-0.169 1.344-0.827 0.018-0.274-0.023-0.43-0.357-1.28-0.055-0.137-0.133-0.334-0.169-0.434-0.174-0.475-0.325-0.832-0.649-1.486-0.361-0.745-0.448-0.901-1.061-1.966-0.517-0.901-0.699-1.262-0.667-1.335 0.014-0.037 0.123-0.114 0.242-0.174 0.718-0.361 1.582-0.933 2.062-1.362l0.379-0.338 0.352 0.114c0.197 0.064 0.667 0.242 1.042 0.398 0.379 0.155 0.928 0.384 1.225 0.507s0.658 0.283 0.8 0.357c0.146 0.078 0.393 0.187 0.558 0.247 0.165 0.064 0.411 0.169 0.549 0.242 0.503 0.256 1.070 0.128 1.358-0.311 0.096-0.146 0.128-0.256 0.142-0.494 0.018-0.334-0.041-0.512-0.261-0.75-0.119-0.128-0.594-0.375-1.033-0.53-0.123-0.046-0.466-0.197-0.759-0.338s-0.544-0.256-0.567-0.256c-0.023 0-0.315-0.123-0.658-0.27-0.343-0.151-0.763-0.325-0.942-0.393-0.475-0.178-0.663-0.261-0.663-0.293 0-0.018 0.133-0.32 0.293-0.667 0.347-0.754 0.608-1.499 0.832-2.354 0.087-0.338 0.178-0.635 0.197-0.654 0.041-0.041 0.869 0.055 1.467 0.16 0.425 0.078 0.681 0.064 0.891-0.041 0.238-0.123 0.361-0.261 0.485-0.535 0.215-0.494-0.050-1.097-0.562-1.275-0.11-0.037-0.352-0.091-0.539-0.123-0.187-0.027-0.425-0.073-0.53-0.091-0.101-0.023-0.379-0.055-0.622-0.073l-0.439-0.032-0.023-0.165c-0.014-0.091-0.018-0.361-0.005-0.599 0.023-0.553-0.037-0.809-0.247-1.051-0.283-0.334-0.731-0.453-1.097-0.297z"></path>
</symbol>
<symbol id="icon-eye1" viewBox="0 0 20 20">
<path d="M5.709 5.988c-0.291 0.109-0.6 0.382-0.745 0.655-0.309 0.612-0.061 1.412 0.891 2.903 0.23 0.358 0.449 0.642 0.952 1.224 0.23 0.261 0.406 0.509 0.394 0.545-0.024 0.061-0.709 0.497-1.958 1.236-0.267 0.158-0.715 0.436-1 0.618s-0.673 0.43-0.867 0.552c-0.764 0.473-1.006 0.8-1.012 1.358 0 0.521 0.273 0.958 0.752 1.206 0.188 0.097 0.327 0.115 0.636 0.097 0.388-0.018 0.436-0.042 1.206-0.533 0.442-0.285 1.030-0.655 1.303-0.818 0.273-0.17 0.564-0.345 0.649-0.4 0.649-0.412 2.291-1.388 2.333-1.388 0.018 0 0.194 0.127 0.4 0.285 0.2 0.164 0.485 0.37 0.63 0.473 0.473 0.327 1.267 0.855 1.503 0.994 0.121 0.073 0.224 0.17 0.224 0.212s-0.073 0.188-0.158 0.315c-0.903 1.321-1.891 3.321-1.951 3.927-0.049 0.558 0.224 1.061 0.721 1.315 0.279 0.139 0.812 0.151 1.109 0.030 0.279-0.115 0.618-0.473 0.703-0.745 0.139-0.418 0.624-1.43 0.976-2.024 0.515-0.873 1.024-1.63 1.085-1.63 0.030 0 0.339 0.127 0.679 0.279 1.273 0.564 1.715 0.709 3.291 1.109 0.133 0.030 0.461 0.091 0.727 0.127 0.267 0.042 0.594 0.091 0.721 0.115l0.242 0.036-0.018 1c-0.012 1.067 0.055 1.988 0.236 3.212 0.133 0.903 0.17 1.012 0.455 1.327 0.612 0.673 1.679 0.521 2.109-0.297 0.2-0.382 0.2-0.43-0.018-1.97-0.127-0.873-0.206-2.939-0.115-3.030 0.024-0.018 0.309-0.061 0.636-0.091 1.291-0.121 2.721-0.37 3.509-0.606 0.103-0.030 0.358-0.109 0.576-0.176 1.594-0.473 1.752-0.558 2.012-1.061 0.248-0.479 0.127-1.17-0.267-1.533-0.194-0.182-0.648-0.382-0.879-0.382-0.109 0-0.358 0.055-0.545 0.115-1.17 0.394-2.321 0.691-3.2 0.824-1.655 0.255-2.049 0.267-3.636 0.091-2.218-0.242-3.121-0.491-5.267-1.442-0.127-0.055-0.758-0.364-1.394-0.679-1.933-0.964-3.182-1.867-4.606-3.303-1.085-1.097-1.982-2.273-2.194-2.879-0.206-0.576-0.297-0.745-0.521-0.933-0.37-0.321-0.873-0.418-1.309-0.261z"></path>
</symbol>
<symbol id="icon-eye3" viewBox="0 0 32 32">
<path d="M6.405 8.083c-0.553 0.256-0.829 0.919-0.588 1.412 0.106 0.216 0.362 0.578 0.653 0.919 0.116 0.141 0.211 0.276 0.211 0.301 0 0.085-0.527 0.653-0.754 0.809-0.357 0.246-0.748 0.477-1.155 0.683-0.643 0.327-1.924 0.889-2.16 0.954-0.407 0.105-0.804 0.633-0.804 1.055 0 0.553 0.568 1.105 1.135 1.105 0.452 0 2.929-1.14 3.964-1.824 0.467-0.311 0.784-0.573 0.98-0.804 0.090-0.1 0.201-0.186 0.251-0.186 0.045 0 0.256 0.161 0.457 0.357 0.698 0.673 1.743 1.422 2.572 1.854 0.241 0.126 0.437 0.256 0.437 0.291 0 0.080-0.211 0.497-0.452 0.889-0.367 0.603-0.553 0.919-0.553 0.949 0 0.015-0.241 0.462-0.533 0.995-0.754 1.361-0.874 1.628-0.874 1.899 0.005 0.568 0.533 1.105 1.1 1.105 0.457 0 0.809-0.281 1.105-0.884 0.121-0.246 0.261-0.502 0.306-0.573s0.196-0.332 0.327-0.578c0.131-0.251 0.296-0.553 0.367-0.678 0.065-0.126 0.201-0.372 0.291-0.548 0.095-0.176 0.246-0.432 0.342-0.578 0.196-0.301 0.462-0.799 0.533-1 0.055-0.156 0.126-0.166 0.477-0.060 0.522 0.161 1.623 0.437 2.23 0.558 0.347 0.070 0.633 0.131 0.638 0.136 0 0.005-0.015 0.372-0.035 0.814-0.095 1.834-0.111 2.899-0.050 3.255 0.161 1 0.327 1.738 0.432 1.944 0.171 0.332 0.568 0.553 0.985 0.553 0.487 0 0.894-0.311 1.035-0.799 0.075-0.266 0.075-0.301-0.025-0.713-0.276-1.105-0.316-1.864-0.201-3.677 0.065-1.055 0.025-0.975 0.497-0.889 0.603 0.105 2.783 0.141 3.486 0.055 0.427-0.050 0.814-0.116 1.306-0.206 0.166-0.035 0.362-0.070 0.432-0.085 0.116-0.020 0.141 0 0.236 0.246 0.060 0.146 0.176 0.527 0.261 0.844 0.266 1.025 0.311 1.175 0.407 1.427 0.050 0.136 0.095 0.266 0.095 0.291 0 0.186 1.060 2.376 1.246 2.572 0.522 0.558 1.492 0.377 1.788-0.332 0.166-0.387 0.116-0.618-0.316-1.507-0.487-1.015-0.718-1.582-0.884-2.2-0.261-0.98-0.291-1.085-0.382-1.366-0.050-0.156-0.105-0.372-0.126-0.482-0.030-0.186-0.020-0.196 0.136-0.261 0.522-0.201 1.387-0.939 1.582-1.346 0.196-0.417 0.035-1.045-0.342-1.316-0.301-0.221-0.623-0.276-0.975-0.176-0.231 0.065-0.337 0.136-0.568 0.377-0.452 0.472-1.14 0.779-2.241 1.005-0.588 0.116-1.030 0.206-1.256 0.251-0.748 0.146-1.889 0.171-3.265 0.070-0.512-0.035-1.336-0.161-1.909-0.296-0.527-0.121-1.005-0.226-1.507-0.327-1.281-0.256-2.597-0.643-3.29-0.965-1.311-0.608-1.904-0.949-2.693-1.542-0.412-0.306-1.668-1.577-1.919-1.939-0.116-0.166-0.311-0.427-0.432-0.578-0.126-0.151-0.352-0.437-0.497-0.628-0.151-0.196-0.327-0.402-0.397-0.462-0.286-0.266-0.759-0.337-1.12-0.171z"></path>
</symbol>
<symbol id="icon-eye4" viewBox="0 0 32 32">
<path d="M25.131 9.055c-0.464 0.121-0.661 0.368-1.201 1.519-0.308 0.651-0.742 1.403-1.045 1.792-0.58 0.757-1.075 1.050-3.225 1.898-0.666 0.262-1.529 0.611-1.918 0.777-0.389 0.162-0.848 0.353-1.025 0.424-0.656 0.273-1.085 0.338-2.352 0.358-1.136 0.015-1.812-0.025-2.327-0.126-0.681-0.136-0.989-0.202-1.312-0.273-0.192-0.045-0.444-0.101-0.555-0.126-1.857-0.414-2.337-0.545-3.003-0.848-0.747-0.343-0.959-0.58-1.338-1.519-0.454-1.136-0.555-1.297-0.944-1.474-0.858-0.389-1.817 0.49-1.484 1.363 0.505 1.312 1.020 2.317 1.338 2.594 0.056 0.056 0.106 0.131 0.106 0.167 0 0.040-0.172 0.257-0.384 0.485-0.636 0.691-2.039 3.15-2.039 3.579 0 0.333 0.106 0.606 0.333 0.828 0.252 0.257 0.495 0.343 0.883 0.313 0.474-0.035 0.666-0.197 1.009-0.883 0.399-0.792 1.105-1.958 1.388-2.286 0.126-0.151 0.384-0.409 0.57-0.57 0.358-0.313 0.409-0.323 0.787-0.156 0.081 0.035 0.323 0.101 0.53 0.146s0.495 0.116 0.631 0.151c0.141 0.040 0.389 0.096 0.555 0.131 0.439 0.091 1.050 0.242 1.075 0.273 0.015 0.015 0 0.111-0.030 0.222-0.035 0.106-0.061 0.464-0.066 0.792-0.005 0.752-0.116 1.56-0.323 2.291-0.040 0.151-0.106 0.424-0.146 0.606-0.071 0.308-0.268 0.888-0.454 1.322-0.116 0.278-0.101 0.54 0.061 0.853 0.187 0.373 0.464 0.56 0.868 0.591 0.399 0.030 0.702-0.086 0.919-0.343 0.298-0.348 0.838-2.024 1.105-3.432 0.106-0.56 0.141-0.944 0.146-1.514 0.005-0.318 0.035-0.666 0.066-0.777l0.061-0.192 1.615 0.005c1.287 0.010 1.691-0.005 1.984-0.071 0.202-0.040 0.414-0.076 0.464-0.076 0.101 0 0.116 0.025 0.585 1.085 0.162 0.358 0.328 0.712 0.373 0.782 0.050 0.071 0.283 0.5 0.515 0.959 1.307 2.534 1.408 2.695 1.787 2.877 0.182 0.091 0.293 0.106 0.55 0.091 0.424-0.025 0.691-0.207 0.898-0.596 0.217-0.419 0.182-0.646-0.202-1.343-0.348-0.626-0.757-1.403-1.171-2.216-0.151-0.308-0.328-0.626-0.389-0.717-0.061-0.086-0.202-0.384-0.318-0.656s-0.252-0.58-0.308-0.681c-0.167-0.313-0.141-0.424 0.141-0.525 0.131-0.045 0.373-0.141 0.54-0.212s0.464-0.187 0.656-0.262c1.040-0.409 1.913-0.777 2.271-0.959l0.404-0.207 0.091 0.116c0.207 0.257 0.979 1.015 1.146 1.115 0.096 0.056 0.242 0.162 0.323 0.227 0.086 0.066 0.202 0.141 0.267 0.167s0.419 0.212 0.787 0.419c0.368 0.202 0.828 0.434 1.020 0.51 0.197 0.076 0.444 0.177 0.555 0.227 0.656 0.303 0.838 0.368 1.11 0.409 0.167 0.030 0.389 0.066 0.495 0.081 0.121 0.020 0.267 0 0.414-0.061 0.762-0.288 1.004-1.146 0.495-1.736-0.227-0.267-0.404-0.358-0.813-0.414-0.182-0.025-0.358-0.071-0.389-0.096-0.061-0.050-0.722-0.333-0.934-0.399-0.172-0.056-0.459-0.202-0.858-0.434-0.182-0.106-0.419-0.242-0.535-0.303-0.464-0.257-0.671-0.409-1.040-0.772-0.217-0.212-0.394-0.404-0.394-0.424s0.086-0.167 0.192-0.323c0.495-0.752 0.903-1.459 1.126-1.953 0.136-0.303 0.328-0.681 0.434-0.848 0.303-0.5 0.288-1.009-0.050-1.388-0.283-0.328-0.691-0.459-1.1-0.353z"></path>
</symbol>
<symbol id="icon-eye5" viewBox="0 0 32 32">
<path d="M27.495 8.044c-0.295 0.079-0.379 0.143-0.798 0.601-0.862 0.955-2.127 2.171-2.767 2.654-0.108 0.084-0.295 0.226-0.418 0.32-1.502 1.147-3.948 2.186-6.233 2.654-1.359 0.276-3.412 0.207-5.721-0.192-0.699-0.118-1.856-0.497-2.624-0.852-0.379-0.177-1.418-0.748-1.871-1.034-0.512-0.32-1.285-0.886-2.171-1.595-0.625-0.497-0.822-0.606-1.127-0.606-0.537 0-1.078 0.517-1.083 1.034 0 0.453 0.212 0.758 0.886 1.265 0.148 0.113 0.384 0.295 0.517 0.404 0.138 0.108 0.325 0.256 0.418 0.325s0.295 0.212 0.443 0.32c0.148 0.108 0.473 0.33 0.714 0.492 0.246 0.158 0.527 0.345 0.625 0.414l0.182 0.123-0.286 0.433c-0.345 0.522-1.068 1.723-1.442 2.402-0.635 1.142-0.64 1.9-0.015 2.329 0.172 0.118 0.241 0.133 0.596 0.133 0.34 0 0.423-0.015 0.576-0.123 0.246-0.162 0.414-0.414 0.478-0.714 0.044-0.202 0.418-0.926 0.847-1.649 0.478-0.802 0.837-1.334 1.029-1.546l0.231-0.251 0.241 0.089c0.847 0.32 1.812 0.601 2.486 0.729 0.389 0.074 0.354-0.039 0.34 1.054-0.015 1.063 0.133 2.649 0.32 3.397 0.3 1.182 0.305 1.196 0.522 1.433 0.517 0.561 1.383 0.428 1.743-0.276 0.123-0.246 0.113-0.591-0.039-1.132-0.069-0.256-0.153-0.591-0.182-0.738-0.108-0.522-0.202-1.708-0.202-2.545v-0.847l1.073 0.030c0.955 0.025 1.9-0.020 2.447-0.113 0.133-0.025 0.162-0.005 0.256 0.162 0.059 0.103 0.118 0.276 0.138 0.384 0.015 0.108 0.049 0.29 0.079 0.404 0.069 0.325 0.128 0.596 0.217 0.999 0.039 0.202 0.098 0.458 0.123 0.566s0.094 0.394 0.148 0.64c0.113 0.492 0.315 1.024 0.586 1.561 0.143 0.286 0.222 0.384 0.404 0.497 0.128 0.079 0.32 0.153 0.433 0.167 0.61 0.084 1.196-0.423 1.206-1.044 0.005-0.187-0.044-0.359-0.207-0.719-0.241-0.551-0.473-1.447-0.798-3.097-0.059-0.286-0.123-0.606-0.153-0.714-0.094-0.359-0.084-0.384 0.128-0.448 1.236-0.359 3.21-1.27 4.199-1.93 0.256-0.172 0.266-0.177 0.492-0.113 0.335 0.089 0.502 0.177 0.778 0.418 0.379 0.335 0.871 1.122 1.314 2.097 0.212 0.473 0.443 0.921 0.512 0.994s0.236 0.177 0.374 0.236c0.315 0.138 0.63 0.113 0.94-0.069 0.325-0.192 0.487-0.458 0.512-0.842 0.020-0.305 0.010-0.34-0.379-1.201-0.453-0.994-0.783-1.575-1.26-2.196-0.158-0.202-0.862-0.911-0.906-0.911-0.015 0-0.064-0.020-0.103-0.049-0.054-0.034 0.094-0.207 0.689-0.802 1.073-1.068 1.708-1.762 1.797-1.969 0.33-0.798-0.428-1.669-1.255-1.442z"></path>
</symbol>
<symbol id="icon-eye6" viewBox="0 0 32 32">
<path d="M24.065 6.639c-0.503 0.155-0.735 0.374-1.026 0.974-0.219 0.445-0.277 0.542-1.258 2-0.826 1.226-1.116 1.6-1.781 2.258-0.697 0.697-1.090 0.91-2.839 1.542-1.684 0.6-2.271 0.768-4.484 1.297-0.303 0.071-1.439 0.297-2 0.394-0.581 0.097-0.948 0.168-1.871 0.342-1.742 0.335-2.026 0.374-2.968 0.419-0.903 0.039-0.994 0.052-1.271 0.219-0.574 0.335-0.839 1.077-0.606 1.69 0.142 0.368 0.587 0.761 0.981 0.871 0.523 0.148 2.361-0.019 3.929-0.355 0.252-0.052 0.49-0.097 0.535-0.097 0.058 0 0.077 0.555 0.077 2.574v2.574l0.181 0.342c0.329 0.626 1.077 0.923 1.716 0.677 0.355-0.135 0.781-0.587 0.871-0.916 0.045-0.161 0.071-1.252 0.071-3.013 0-2.148 0.019-2.761 0.084-2.781 0.039-0.013 0.252-0.058 0.465-0.103s0.548-0.116 0.742-0.168c0.194-0.045 0.677-0.161 1.065-0.252 0.394-0.097 1.084-0.29 1.535-0.439l0.832-0.265 0.116 0.155c0.065 0.090 0.142 0.265 0.161 0.387 0.026 0.123 0.103 0.368 0.174 0.548 0.071 0.174 0.181 0.452 0.245 0.613 0.323 0.8 0.671 1.529 0.794 1.665 0.394 0.426 1.123 0.555 1.626 0.29 0.71-0.374 0.987-1.129 0.671-1.819-0.516-1.142-1.071-2.761-0.974-2.858 0.026-0.019 0.252-0.148 0.497-0.284 0.252-0.135 0.581-0.342 0.742-0.465 0.419-0.316 1.316-1.2 1.716-1.703 0.419-0.516 0.413-0.516 0.645-0.445 0.103 0.032 0.361 0.090 0.574 0.129s0.632 0.168 0.929 0.297c1.103 0.458 2.49 0.677 3.013 0.484 0.226-0.090 0.606-0.452 0.742-0.716 0.148-0.303 0.161-0.806 0.019-1.142-0.213-0.51-0.652-0.806-1.297-0.877-0.219-0.026-0.568-0.090-0.774-0.142-0.406-0.103-1.497-0.523-1.6-0.619-0.039-0.039-0.019-0.129 0.058-0.265 0.065-0.116 0.245-0.452 0.4-0.755 0.316-0.606 0.361-0.974 0.187-1.406-0.271-0.639-1.039-1.039-1.645-0.858z"></path>
</symbol>
</defs>
</svg>
